<svg width="100" height="100" viewBox="0 0 100 100" fill="none" xmlns="http://www.w3.org/2000/svg">
<path d="M50 100C77.6142 100 100 77.6142 100 50C100 22.3858 77.6142 0 50 0C22.3858 0 0 22.3858 0 50C0 77.6142 22.3858 100 50 100Z" fill="#F28A4B"/>
<path fill-rule="evenodd" clip-rule="evenodd" d="M76 44.4773V43.3487L49.9886 31L24 43.3378V44.488L49.9886 56.8261L76 44.4773ZM33.0041 51.0131V58.3932L48.6722 65.8315H51.305L66.9301 58.4136C66.9451 58.3811 66.9592 58.3487 66.9733 58.316V51.013L49.9886 59.0763L33.0041 51.0131ZM73.2604 47.9454V62.3028L74.6006 66.3273L72.5746 69H71.889L69.8629 66.3273L71.2033 62.3028V48.9678L73.2604 47.9454Z" fill="white"/>
</svg>
