<svg width="98" height="30" viewBox="0 0 98 30" fill="none" xmlns="http://www.w3.org/2000/svg">
<path d="M0.96 29V0.999998H18.28V3.76H4.32V13.52H17.08V16.24H4.32V26.24H18.28V29H0.96ZM23.5381 29V0.999998H32.1381C37.0715 0.999998 40.6981 2.25333 43.0181 4.76C45.3648 7.26667 46.5381 10.7067 46.5381 15.08C46.5381 19.3733 45.3648 22.7733 43.0181 25.28C40.6981 27.76 37.0715 29 32.1381 29H23.5381ZM26.8981 26.2H32.0581C34.7781 26.2 36.9381 25.76 38.5381 24.88C40.1648 23.9733 41.3248 22.6933 42.0181 21.04C42.7115 19.36 43.0581 17.3733 43.0581 15.08C43.0581 12.7333 42.7115 10.72 42.0181 9.04C41.3248 7.36 40.1648 6.06667 38.5381 5.16C36.9381 4.25333 34.7781 3.8 32.0581 3.8H26.8981V26.2ZM63.6697 29.48C60.923 29.48 58.5497 28.88 56.5497 27.68C54.5764 26.4533 53.043 24.76 51.9497 22.6C50.8564 20.4133 50.3097 17.88 50.3097 15C50.3097 12.1467 50.8564 9.64 51.9497 7.48C53.043 5.29333 54.5764 3.58667 56.5497 2.36C58.5497 1.13333 60.923 0.52 63.6697 0.52C66.8697 0.52 69.4697 1.29333 71.4697 2.84C73.4964 4.36 74.7897 6.49333 75.3497 9.24H71.6297C71.203 7.50667 70.323 6.12 68.9897 5.08C67.683 4.01333 65.9097 3.48 63.6697 3.48C61.6697 3.48 59.923 3.94667 58.4297 4.88C56.9364 5.78667 55.7764 7.10667 54.9497 8.84C54.1497 10.5467 53.7497 12.6 53.7497 15C53.7497 17.4 54.1497 19.4667 54.9497 21.2C55.7764 22.9067 56.9364 24.2267 58.4297 25.16C59.923 26.0667 61.6697 26.52 63.6697 26.52C65.9097 26.52 67.683 26.0133 68.9897 25C70.323 23.96 71.203 22.5867 71.6297 20.88H75.3497C74.7897 23.5733 73.4964 25.68 71.4697 27.2C69.4697 28.72 66.8697 29.48 63.6697 29.48ZM86.0747 29V3.76H77.7147V0.999998H97.7947V3.76H89.4347V29H86.0747Z" fill="white"/>
</svg>
