<svg width="16" height="18" viewBox="0 0 16 18" fill="none" xmlns="http://www.w3.org/2000/svg">
<path fill-rule="evenodd" clip-rule="evenodd" d="M12.9896 5.35582L14.0674 4.27854L13.0069 3.21814L11.8539 4.37057C10.8007 3.62449 9.5716 3.16467 8.28711 3.03616V1.49934H9.78711V0H5.28711V1.49934H6.78711V3.03616C5.50262 3.16467 4.27355 3.62449 3.2203 4.37057L2.06737 3.21814L1.00687 4.27854L2.08462 5.35582C-0.721331 8.32539 -0.632444 12.9938 2.28451 15.8545C5.20147 18.7152 9.87275 18.7152 12.7897 15.8545C15.7067 12.9938 15.7955 8.32539 12.9896 5.35582ZM7.53711 16.4927C4.2234 16.4927 1.53712 13.8076 1.53712 10.4954C1.53712 7.18311 4.2234 4.49801 7.53711 4.49801C10.8508 4.49801 13.5371 7.18311 13.5371 10.4954C13.5334 13.8061 10.8493 16.489 7.53711 16.4927ZM7.53711 10.4954V5.99734C10.0224 5.99734 12.0371 8.01117 12.0371 10.4954C12.0371 12.9795 10.0224 14.9934 7.53711 14.9934C5.05183 14.9934 3.03711 12.9795 3.03711 10.4954H7.53711Z" fill="#F07867"/>
</svg>
